<?xml version="1.0" encoding="utf-8"?>
<!-- Svg Vector Icons : http://www.onlinewebfonts.com/icon -->
<!DOCTYPE svg PUBLIC "-//W3C//DTD SVG 1.1//EN" "http://www.w3.org/Graphics/SVG/1.1/DTD/svg11.dtd">
<svg version="1.1" xmlns="http://www.w3.org/2000/svg" xmlns:xlink="http://www.w3.org/1999/xlink" x="0px" y="0px" viewBox="0 0 1000 1000" enable-background="new 0 0 1000 1000" xml:space="preserve">
<metadata> Svg Vector Icons : http://www.onlinewebfonts.com/icon </metadata>
<g><g transform="translate(0.000000,512.000000) scale(0.100000,-0.100000)"><path d="M6853.2,5007c-164.9-21.1-429.5-94-602.1-168.7c-510-216.7-1043.1-759.3-1332.6-1353.7c-157.2-324-220.5-563.7-268.4-1035.4c-17.3-157.2-47.9-360.5-69-450.6c-47.9-191.7-182.2-485.1-291.5-632.8c-99.7-130.4-360.5-402.7-387.3-402.7c-11.5,0-569.5,548.4-1238.7,1219.5c-697.9,697.9-1248.3,1234.8-1290.4,1255.9c-220.5,115-500.4,24.9-621.3-199.4c-47.9-86.3-46-326,1.9-416.1c19.2-36.4,377.7-410.3,793.8-828.3c418-419.9,755.5-765.1,749.7-768.9c-3.8-3.8-76.7-30.7-161.1-59.4C1547.7,961.3,980.1,522.2,627.3-5.1c-701.8-1046.9-703.7-2370-1.9-3432.2c168.7-255,559.9-646.2,811.1-813c824.5-548.4,1779.4-680.7,2699.7-373.9c876.3,289.6,1603,1000.9,1909.8,1867.6c28.8,78.6,55.6,155.3,59.4,168.7c5.7,15.3,326-291.5,776.6-742.1c423.7-423.7,795.7-782.3,828.3-799.6c92-47.9,245.4-55.6,356.6-19.2c70.9,24.9,122.7,59.4,184.1,128.5c134.2,149.6,161.1,339.4,69,512c-19.2,40.3-584.8,619.3-1254,1288.5C6394.9-1550.6,5846.6-992.6,5846.6-981.1c0,36.4,329.8,339.4,471.7,435.3c256.9,168.7,540.7,262.7,918.5,301c625.1,65.2,945.3,157.2,1338.4,389.2C9041,420.6,9499.3,894.2,9691,1300.6c151.5,318.3,209,592.5,209,985.6c-1.9,550.3-140,993.2-467.9,1495.6c-151.5,232-536.9,617.4-767,768.9C8095.7,4926.5,7470.6,5083.7,6853.2,5007z M4214.8-674.3l1139-1138.9l-11.5-132.3c-46-483.2-276.1-962.6-634.7-1321.1c-281.9-283.8-596.3-465.9-991.3-575.2c-245.4-67.1-674.9-84.4-926.1-38.3c-721,136.1-1284.7,563.7-1597.2,1211.8C1049.1-2371.2,993.5-2145,982-1807.5c-24.9,646.2,186,1181.1,644.3,1641.3c362.4,364.3,918.4,619.3,1363.3,628.9l86.3,1.9L4214.8-674.3z"/></g></g>
</svg>